<svg width="420" height="581" viewBox="0 0 420 581" fill="none" xmlns="http://www.w3.org/2000/svg">
<rect x="176.337" y="34.6662" width="39" height="199.598" transform="rotate(45 176.337 34.6662)" fill="black" stroke="#FFFEFE" stroke-width="3"/>
<rect x="34.5" y="1.5" width="39" height="578" rx="3.5" fill="black" stroke="#FFFEFE" stroke-width="3"/>
<rect x="351.5" y="34.5" width="39" height="350" rx="3.5" transform="rotate(90 351.5 34.5)" fill="black" stroke="#FFFEFE" stroke-width="3"/>
<rect x="298" y="75" width="10" height="74" fill="black"/>
<circle cx="303.5" cy="180.5" r="48" fill="white" stroke="#909090" stroke-width="5"/>
<rect x="300" y="240" width="5" height="131" fill="#909090"/>
<rect x="380" y="70" width="5" height="100" transform="rotate(39.64 63.7964 0)" fill="#909090"/>
<rect y="420" x="100" width="5" height="100" transform="rotate(-39.6353 0 3.18951)"
fill="#909090"/>
<rect x="480" y="160" width="5" height="100" transform="rotate(39.64 63.7964 0)" fill="#909090"/>
<rect y="510" width="5" height="100" transform="rotate(-39.6353 0 3.18951)" fill="#909090"/>
<rect x="325" y="-90" width="5" height="20" transform="rotate(45)" fill="#909090"/>
<rect x="345" y="-110" width="5" height="20" transform="rotate(45)" fill="#909090"/>
<rect y="318" x="78" width="5" height="20" transform="rotate(-45)" fill="#909090"/>
<rect y="338" x="97" width="5" height="20" transform="rotate(-45)" fill="#909090"/>
<path d="M 282 210 C 292 190, 312 190, 322 210" stroke="#909090" fill="transparent" stroke-width="3"/>
</svg>